<svg xmlns="http://www.w3.org/2000/svg" viewBox="0 0 512 512" role="img" aria-label="Trendies Global">
  <rect width="512" height="512" rx="104" fill="#f6ead8"/>
  <circle cx="384" cy="126" r="54" fill="#f5b247"/>
  <path d="M83 336c55-70 117-106 185-106 65 0 120 30 161 88v111H83z" fill="#2f6f73"/>
  <path d="M83 360c38-41 78-62 121-62 39 0 74 17 106 51 31-25 65-38 101-38 29 0 56 9 80 28v90H83z" fill="#335c9b"/>
  <path d="M118 143h276v68H118z" fill="#1f2729"/>
  <path d="M160 143h46v194h-46zM237 143h46v194h-46zM314 143h46v194h-46z" fill="#1f2729"/>
  <path d="M118 143h276v36H118z" fill="#f6ead8" opacity=".2"/>
</svg>
